<svg width="20" height="12" viewBox="0 0 20 12" fill="none" xmlns="http://www.w3.org/2000/svg">
<path d="M10.0966 10.6249C9.70608 11.0154 9.07291 11.0154 8.68239 10.6249L4.77649 6.71902C4.57937 6.5219 4.57948 6.20226 4.77674 6.00527C4.97381 5.80848 5.29307 5.80859 5.49 6.00552L8.68239 9.19792C9.07291 9.58844 9.70608 9.58844 10.0966 9.19792L18.1885 1.10602C18.3856 0.908898 18.7053 0.90901 18.9022 1.10627C19.099 1.30334 19.0989 1.62259 18.902 1.81952L10.0966 10.6249Z" fill="#4A89FF"/>
<path d="M6.0966 10.6249C5.70608 11.0154 5.07291 11.0154 4.68239 10.6249L0.776495 6.71902C0.57937 6.5219 0.579482 6.20226 0.776745 6.00527C0.973813 5.80848 1.29307 5.80859 1.49 6.00552L4.68239 9.19792C5.07291 9.58844 5.70608 9.58844 6.0966 9.19792L14.1885 1.10602C14.3856 0.908898 14.7053 0.90901 14.9022 1.10627C15.099 1.30334 15.0989 1.62259 14.902 1.81952L6.0966 10.6249Z" fill="#4A89FF"/>
</svg>
