<svg width="30" height="34" viewBox="0 0 30 34" fill="none" xmlns="http://www.w3.org/2000/svg">
<path d="M15 33.3652C12.9395 33.3652 11.0059 32.9746 9.19922 32.1934C7.39258 31.4219 5.80566 30.3525 4.43848 28.9854C3.07129 27.6182 1.99707 26.0312 1.21582 24.2246C0.444336 22.418 0.0585938 20.4844 0.0585938 18.4238C0.0585938 16.7539 0.3125 15.1719 0.820312 13.6777C1.33789 12.1738 2.06055 10.8018 2.98828 9.56152C3.92578 8.31152 5.02441 7.23242 6.28418 6.32422C6.60645 6.07031 6.94824 5.97754 7.30957 6.0459C7.6709 6.11426 7.94434 6.29492 8.12988 6.58789C8.31543 6.90039 8.36426 7.21777 8.27637 7.54004C8.19824 7.85254 8.00781 8.12109 7.70508 8.3457C6.66992 9.08789 5.7666 9.98145 4.99512 11.0264C4.22363 12.0615 3.62305 13.2041 3.19336 14.4541C2.76367 15.7041 2.54883 17.0273 2.54883 18.4238C2.54883 20.1426 2.87109 21.7539 3.51562 23.2578C4.16016 24.7617 5.05371 26.085 6.19629 27.2275C7.33887 28.3701 8.66211 29.2637 10.166 29.9082C11.6699 30.5527 13.2812 30.875 15 30.875C16.7188 30.875 18.3301 30.5527 19.834 29.9082C21.3379 29.2637 22.6611 28.3701 23.8037 27.2275C24.9463 26.085 25.8398 24.7617 26.4844 23.2578C27.1289 21.7539 27.4512 20.1426 27.4512 18.4238C27.4512 16.9395 27.207 15.5332 26.7188 14.2051C26.2402 12.877 25.5664 11.6807 24.6973 10.6162C23.8281 9.54199 22.8076 8.63379 21.6357 7.8916C20.4736 7.14941 19.2041 6.61719 17.8271 6.29492V8.4043C17.8271 8.74609 17.7539 9.00488 17.6074 9.18066C17.4707 9.35645 17.2852 9.44434 17.0508 9.44434C16.8262 9.43457 16.5771 9.33691 16.3037 9.15137L11.6309 5.87012C11.2988 5.63574 11.1279 5.3623 11.1182 5.0498C11.1182 4.7373 11.2891 4.45898 11.6309 4.21484L16.2891 0.933594C16.5625 0.748047 16.8164 0.650391 17.0508 0.640625C17.2852 0.630859 17.4707 0.713867 17.6074 0.889648C17.7539 1.06543 17.8271 1.3291 17.8271 1.68066V3.76074C19.5361 4.08301 21.123 4.68359 22.5879 5.5625C24.0625 6.43164 25.3516 7.52051 26.4551 8.8291C27.5586 10.1377 28.4131 11.6074 29.0186 13.2383C29.6338 14.8691 29.9414 16.5977 29.9414 18.4238C29.9414 20.4844 29.5508 22.418 28.7695 24.2246C27.998 26.0312 26.9287 27.6182 25.5615 28.9854C24.1943 30.3525 22.6074 31.4219 20.8008 32.1934C18.9941 32.9746 17.0605 33.3652 15 33.3652ZM14.2529 24.2539C13.6963 24.2539 13.3008 24.1758 13.0664 24.0195C12.8418 23.8535 12.7295 23.6143 12.7295 23.3018C12.7295 22.6865 12.9736 22.042 13.4619 21.3682C13.9502 20.6943 14.6436 20.123 15.542 19.6543C16.4404 19.1758 17.5098 18.9365 18.75 18.9365C19.9805 18.9365 21.04 19.1758 21.9287 19.6543C22.8271 20.123 23.5156 20.6943 23.9941 21.3682C24.4824 22.042 24.7266 22.6865 24.7266 23.3018C24.7266 23.6143 24.6143 23.8535 24.3896 24.0195C24.165 24.1758 23.7695 24.2539 23.2031 24.2539H14.2529ZM18.75 17.6621C17.9785 17.6621 17.3096 17.3594 16.7432 16.7539C16.1768 16.1387 15.8936 15.3916 15.8936 14.5127C15.8936 13.6436 16.1768 12.916 16.7432 12.3301C17.3096 11.7344 17.9785 11.4365 18.75 11.4365C19.5117 11.4365 20.1709 11.7295 20.7275 12.3154C21.2939 12.8916 21.5771 13.6191 21.5771 14.498C21.5771 15.3867 21.2939 16.1387 20.7275 16.7539C20.1709 17.3594 19.5117 17.6621 18.75 17.6621ZM6.54785 24.2539C6.09863 24.2539 5.77637 24.166 5.58105 23.9902C5.39551 23.8145 5.30273 23.5654 5.30273 23.2432C5.30273 22.5889 5.5127 21.9297 5.93262 21.2656C6.3623 20.5918 6.96777 20.0303 7.74902 19.5811C8.53027 19.1318 9.45801 18.9072 10.5322 18.9072C11.1865 18.9072 11.7725 18.9951 12.29 19.1709C12.8076 19.3467 13.2666 19.5713 13.667 19.8447C13.1592 20.2354 12.7344 20.709 12.3926 21.2656C12.0508 21.8125 11.8311 22.3594 11.7334 22.9062C11.6455 23.4531 11.7236 23.9023 11.9678 24.2539H6.54785ZM10.5322 17.8086C9.86816 17.8086 9.28711 17.5449 8.78906 17.0176C8.30078 16.4902 8.05176 15.8408 8.04199 15.0693C8.04199 14.3174 8.29102 13.6875 8.78906 13.1797C9.28711 12.6621 9.86816 12.4033 10.5322 12.4033C11.1963 12.4033 11.7725 12.6572 12.2607 13.165C12.7588 13.6631 13.0078 14.293 13.0078 15.0547C13.0078 15.8359 12.7588 16.4902 12.2607 17.0176C11.7725 17.5449 11.1963 17.8086 10.5322 17.8086Z" fill="#ECECEC" fill-opacity="0.5"/>
</svg>
