<svg width="15" height="16" viewBox="0 0 15 16" fill="none" xmlns="http://www.w3.org/2000/svg">
<path d="M2.58594 15.0938C1.3099 15.0938 0.671875 14.6771 0.671875 13.8438C0.671875 13.3333 0.828125 12.7891 1.14062 12.2109C1.45312 11.6328 1.90365 11.0885 2.49219 10.5781C3.08594 10.0625 3.80208 9.64323 4.64062 9.32031C5.48438 8.9974 6.4375 8.83594 7.5 8.83594C8.55729 8.83594 9.50521 8.9974 10.3438 9.32031C11.1875 9.64323 11.9036 10.0625 12.4922 10.5781C13.0859 11.0885 13.5391 11.6328 13.8516 12.2109C14.1641 12.7891 14.3203 13.3333 14.3203 13.8438C14.3203 14.6771 13.6823 15.0938 12.4062 15.0938H2.58594ZM2.21875 13.9141H12.7812C12.8802 13.9141 12.9505 13.8984 12.9922 13.8672C13.0391 13.8359 13.0625 13.7786 13.0625 13.6953C13.0625 13.3724 12.9401 13.0026 12.6953 12.5859C12.4557 12.1693 12.099 11.7656 11.625 11.375C11.151 10.9844 10.5677 10.6615 9.875 10.4062C9.1875 10.1458 8.39583 10.0156 7.5 10.0156C6.60417 10.0156 5.8099 10.1458 5.11719 10.4062C4.42448 10.6615 3.84115 10.9844 3.36719 11.375C2.89323 11.7656 2.53385 12.1693 2.28906 12.5859C2.04948 13.0026 1.92969 13.3724 1.92969 13.6953C1.92969 13.7786 1.95052 13.8359 1.99219 13.8672C2.03906 13.8984 2.11458 13.9141 2.21875 13.9141ZM7.5 7.85938C6.88021 7.85938 6.3151 7.69531 5.80469 7.36719C5.29427 7.03906 4.88542 6.59896 4.57812 6.04688C4.27604 5.48958 4.125 4.8776 4.125 4.21094C4.125 3.54948 4.27604 2.94792 4.57812 2.40625C4.88542 1.86458 5.29427 1.43229 5.80469 1.10938C6.3151 0.786458 6.88021 0.625 7.5 0.625C8.125 0.625 8.69271 0.783854 9.20312 1.10156C9.71354 1.41927 10.1198 1.84896 10.4219 2.39062C10.724 2.92708 10.875 3.52865 10.875 4.19531C10.875 4.86719 10.7214 5.48177 10.4141 6.03906C10.112 6.59115 9.70573 7.03385 9.19531 7.36719C8.6849 7.69531 8.11979 7.85938 7.5 7.85938ZM7.5 6.67969C7.88542 6.67969 8.23698 6.57031 8.55469 6.35156C8.8776 6.1276 9.13542 5.82812 9.32812 5.45312C9.52083 5.07292 9.61719 4.65365 9.61719 4.19531C9.61719 3.74219 9.52083 3.33594 9.32812 2.97656C9.14062 2.61198 8.88542 2.32552 8.5625 2.11719C8.24479 1.90885 7.89062 1.80469 7.5 1.80469C7.11458 1.80469 6.76042 1.91146 6.4375 2.125C6.11979 2.33333 5.86458 2.61979 5.67188 2.98438C5.47917 3.34896 5.38281 3.75781 5.38281 4.21094C5.38281 4.66927 5.47917 5.08594 5.67188 5.46094C5.86979 5.83594 6.1276 6.13281 6.44531 6.35156C6.76823 6.57031 7.11979 6.67969 7.5 6.67969Z" fill="#ECECEC"/>
</svg>
