<svg width="23" height="18" viewBox="0 0 23 18" fill="none" xmlns="http://www.w3.org/2000/svg">
<path d="M22.375 9.03906C22.375 9.33594 22.2578 9.59766 22.0234 9.82422L14.2305 17.5938C14.0039 17.8125 13.75 17.9219 13.4688 17.9219C13.1797 17.9219 12.9375 17.8242 12.7422 17.6289C12.5469 17.4414 12.4492 17.2031 12.4492 16.9141C12.4492 16.7734 12.4727 16.6406 12.5195 16.5156C12.5664 16.3828 12.6367 16.2695 12.7305 16.1758L15.3555 13.5039L20.0078 9.27344L20.2422 9.84766L16.4688 10.082H1.64453C1.33984 10.082 1.08984 9.98438 0.894531 9.78906C0.707031 9.59375 0.613281 9.34375 0.613281 9.03906C0.613281 8.73438 0.707031 8.48438 0.894531 8.28906C1.08984 8.09375 1.33984 7.99609 1.64453 7.99609H16.4688L20.2422 8.23047L20.0078 8.81641L15.3555 4.57422L12.7305 1.90234C12.6367 1.80859 12.5664 1.69922 12.5195 1.57422C12.4727 1.44141 12.4492 1.30469 12.4492 1.16406C12.4492 0.875 12.5469 0.636719 12.7422 0.449219C12.9375 0.253906 13.1797 0.15625 13.4688 0.15625C13.6094 0.15625 13.7422 0.183594 13.8672 0.238281C14 0.292969 14.1289 0.382812 14.2539 0.507812L22.0234 8.25391C22.2578 8.48047 22.375 8.74219 22.375 9.03906Z" fill="black"/>
</svg>
