<svg width="16" height="17" viewBox="0 0 16 17" fill="none" xmlns="http://www.w3.org/2000/svg">
<path d="M8 16.8281C6.90104 16.8281 5.86979 16.6198 4.90625 16.2031C3.94271 15.7917 3.09635 15.2214 2.36719 14.4922C1.63802 13.763 1.0651 12.9167 0.648438 11.9531C0.236979 10.9896 0.03125 9.95833 0.03125 8.85938C0.03125 7.76042 0.236979 6.72917 0.648438 5.76562C1.0651 4.80208 1.63802 3.95573 2.36719 3.22656C3.09635 2.49219 3.94271 1.91927 4.90625 1.50781C5.86979 1.09635 6.90104 0.890625 8 0.890625C9.09896 0.890625 10.1302 1.09635 11.0938 1.50781C12.0573 1.91927 12.9036 2.49219 13.6328 3.22656C14.362 3.95573 14.9323 4.80208 15.3438 5.76562C15.7604 6.72917 15.9688 7.76042 15.9688 8.85938C15.9688 9.95833 15.7604 10.9896 15.3438 11.9531C14.9323 12.9167 14.362 13.763 13.6328 14.4922C12.9036 15.2214 12.0573 15.7917 11.0938 16.2031C10.1302 16.6198 9.09896 16.8281 8 16.8281ZM8 15.5C8.91667 15.5 9.77604 15.3281 10.5781 14.9844C11.3802 14.6406 12.0859 14.1641 12.6953 13.5547C13.3047 12.9453 13.7812 12.2396 14.125 11.4375C14.4688 10.6354 14.6406 9.77604 14.6406 8.85938C14.6406 7.94271 14.4688 7.08333 14.125 6.28125C13.7812 5.47396 13.3047 4.76823 12.6953 4.16406C12.0859 3.55469 11.3802 3.07812 10.5781 2.73438C9.77604 2.39062 8.91667 2.21875 8 2.21875C7.08333 2.21875 6.22396 2.39062 5.42188 2.73438C4.61979 3.07812 3.91406 3.55469 3.30469 4.16406C2.69531 4.76823 2.21875 5.47396 1.875 6.28125C1.53125 7.08333 1.35938 7.94271 1.35938 8.85938C1.35938 9.77604 1.53125 10.6354 1.875 11.4375C2.21875 12.2396 2.69531 12.9453 3.30469 13.5547C3.91406 14.1641 4.61979 14.6406 5.42188 14.9844C6.22396 15.3281 7.08333 15.5 8 15.5ZM4.375 8.85938C4.375 8.66146 4.4349 8.5026 4.55469 8.38281C4.67969 8.25781 4.84375 8.19531 5.04688 8.19531H7.34375V5.89844C7.34375 5.70052 7.40365 5.53906 7.52344 5.41406C7.64323 5.28906 7.79688 5.22656 7.98438 5.22656C8.18229 5.22656 8.34115 5.28906 8.46094 5.41406C8.58594 5.53385 8.64844 5.69531 8.64844 5.89844V8.19531H10.9531C11.151 8.19531 11.3099 8.25781 11.4297 8.38281C11.5547 8.5026 11.6172 8.66146 11.6172 8.85938C11.6172 9.04688 11.5547 9.20052 11.4297 9.32031C11.3099 9.4401 11.151 9.5 10.9531 9.5H8.64844V11.8047C8.64844 12.0026 8.58594 12.1641 8.46094 12.2891C8.34115 12.4089 8.18229 12.4688 7.98438 12.4688C7.79688 12.4688 7.64323 12.4089 7.52344 12.2891C7.40365 12.1641 7.34375 12.0026 7.34375 11.8047V9.5H5.04688C4.84896 9.5 4.6875 9.4401 4.5625 9.32031C4.4375 9.20052 4.375 9.04688 4.375 8.85938Z" fill="#ECECEC"/>
</svg>
