<svg width="16" height="18" viewBox="0 0 16 18" fill="none" xmlns="http://www.w3.org/2000/svg">
<path d="M8 17.8281C6.90104 17.8281 5.86979 17.6198 4.90625 17.2031C3.94271 16.7917 3.09635 16.2214 2.36719 15.4922C1.63802 14.763 1.0651 13.9167 0.648438 12.9531C0.236979 11.9896 0.03125 10.9583 0.03125 9.85938C0.03125 8.96875 0.166667 8.125 0.4375 7.32812C0.713542 6.52604 1.09896 5.79427 1.59375 5.13281C2.09375 4.46615 2.67969 3.89062 3.35156 3.40625C3.52344 3.27083 3.70573 3.22135 3.89844 3.25781C4.09115 3.29427 4.23698 3.39062 4.33594 3.54688C4.4349 3.71354 4.46094 3.88281 4.41406 4.05469C4.3724 4.22135 4.27083 4.36458 4.10938 4.48438C3.55729 4.88021 3.07552 5.35677 2.66406 5.91406C2.2526 6.46615 1.93229 7.07552 1.70312 7.74219C1.47396 8.40885 1.35938 9.11458 1.35938 9.85938C1.35938 10.776 1.53125 11.6354 1.875 12.4375C2.21875 13.2396 2.69531 13.9453 3.30469 14.5547C3.91406 15.1641 4.61979 15.6406 5.42188 15.9844C6.22396 16.3281 7.08333 16.5 8 16.5C8.91667 16.5 9.77604 16.3281 10.5781 15.9844C11.3802 15.6406 12.0859 15.1641 12.6953 14.5547C13.3047 13.9453 13.7812 13.2396 14.125 12.4375C14.4688 11.6354 14.6406 10.776 14.6406 9.85938C14.6406 9.06771 14.5104 8.31771 14.25 7.60938C13.9948 6.90104 13.6354 6.26302 13.1719 5.69531C12.7083 5.1224 12.1641 4.63802 11.5391 4.24219C10.9193 3.84635 10.2422 3.5625 9.50781 3.39062V4.51562C9.50781 4.69792 9.46875 4.83594 9.39062 4.92969C9.31771 5.02344 9.21875 5.07031 9.09375 5.07031C8.97396 5.0651 8.84115 5.01302 8.69531 4.91406L6.20312 3.16406C6.02604 3.03906 5.9349 2.89323 5.92969 2.72656C5.92969 2.5599 6.02083 2.41146 6.20312 2.28125L8.6875 0.53125C8.83333 0.432292 8.96875 0.380208 9.09375 0.375C9.21875 0.369792 9.31771 0.414062 9.39062 0.507812C9.46875 0.601562 9.50781 0.742188 9.50781 0.929688V2.03906C10.4193 2.21094 11.2656 2.53125 12.0469 3C12.8333 3.46354 13.5208 4.04427 14.1094 4.74219C14.6979 5.4401 15.1536 6.22396 15.4766 7.09375C15.8047 7.96354 15.9688 8.88542 15.9688 9.85938C15.9688 10.9583 15.7604 11.9896 15.3438 12.9531C14.9323 13.9167 14.362 14.763 13.6328 15.4922C12.9036 16.2214 12.0573 16.7917 11.0938 17.2031C10.1302 17.6198 9.09896 17.8281 8 17.8281Z" fill="#ECECEC"/>
</svg>
