<svg width="32" height="31" viewBox="0 0 32 31" fill="none" xmlns="http://www.w3.org/2000/svg">
<path d="M14.6523 30.7314C14.2715 30.7314 13.9492 30.624 13.6855 30.4092C13.4316 30.2041 13.2559 29.9111 13.1582 29.5303L12.3965 26.3076C12.1133 26.21 11.835 26.1074 11.5615 26C11.2881 25.8926 11.0293 25.7803 10.7852 25.6631L7.97266 27.3916C7.65039 27.5869 7.31836 27.6699 6.97656 27.6406C6.64453 27.6113 6.34668 27.4648 6.08301 27.2012L4.20801 25.3262C3.94434 25.0625 3.79297 24.7549 3.75391 24.4033C3.72461 24.0518 3.81738 23.7197 4.03223 23.4072L5.74609 20.6094C5.62891 20.3555 5.5166 20.0967 5.40918 19.833C5.30176 19.5693 5.20898 19.3057 5.13086 19.042L1.87891 18.2656C1.49805 18.1777 1.20508 18.0068 1 17.7529C0.794922 17.4893 0.692383 17.167 0.692383 16.7861V14.1348C0.692383 13.7637 0.794922 13.4512 1 13.1973C1.20508 12.9336 1.49805 12.7578 1.87891 12.6699L5.10156 11.8936C5.18945 11.5908 5.28711 11.3076 5.39453 11.0439C5.51172 10.7803 5.61914 10.5312 5.7168 10.2969L4.00293 7.45508C3.79785 7.13281 3.70508 6.80566 3.72461 6.47363C3.75391 6.1416 3.90527 5.84375 4.17871 5.58008L6.08301 3.69043C6.34668 3.42676 6.63965 3.27539 6.96191 3.23633C7.28418 3.19727 7.60645 3.27539 7.92871 3.4707L10.7705 5.22852C11.0146 5.10156 11.2734 4.98437 11.5469 4.87695C11.8301 4.75977 12.1133 4.65234 12.3965 4.55469L13.1582 1.31738C13.2559 0.946289 13.4316 0.65332 13.6855 0.438477C13.9492 0.223633 14.2715 0.116211 14.6523 0.116211H17.3477C17.7285 0.116211 18.0459 0.223633 18.2998 0.438477C18.5635 0.65332 18.7393 0.946289 18.8271 1.31738L19.5889 4.58398C19.8916 4.68164 20.1748 4.78418 20.4385 4.8916C20.7119 4.99902 20.9658 5.11621 21.2002 5.24316L24.0713 3.4707C24.3838 3.27539 24.6963 3.20215 25.0088 3.25098C25.3311 3.2998 25.6289 3.44629 25.9023 3.69043L27.8213 5.58008C28.0947 5.84375 28.2412 6.1416 28.2607 6.47363C28.2803 6.80566 28.1924 7.13281 27.9971 7.45508L26.2686 10.2969C26.3662 10.5312 26.4688 10.7803 26.5762 11.0439C26.6934 11.3076 26.8008 11.5908 26.8984 11.8936L30.1211 12.6699C30.4922 12.7578 30.7803 12.9336 30.9854 13.1973C31.2002 13.4512 31.3076 13.7637 31.3076 14.1348V16.7861C31.3076 17.167 31.2002 17.4893 30.9854 17.7529C30.7803 18.0068 30.4922 18.1777 30.1211 18.2656L26.8691 19.042C26.7812 19.3057 26.6836 19.5693 26.5762 19.833C26.4785 20.0967 26.3662 20.3555 26.2393 20.6094L27.9678 23.4072C28.1826 23.7197 28.2705 24.0518 28.2314 24.4033C28.2021 24.7549 28.0557 25.0625 27.792 25.3262L25.9023 27.2012C25.6387 27.4648 25.3359 27.6113 24.9941 27.6406C24.6621 27.6699 24.3398 27.5869 24.0273 27.3916L21.2002 25.6631C20.9561 25.7803 20.6973 25.8926 20.4238 26C20.1504 26.1074 19.8721 26.21 19.5889 26.3076L18.8271 29.5303C18.7393 29.9111 18.5635 30.2041 18.2998 30.4092C18.0459 30.624 17.7285 30.7314 17.3477 30.7314H14.6523ZM16 20.5947C16.9473 20.5947 17.8115 20.3652 18.5928 19.9062C19.374 19.4375 19.999 18.8125 20.4678 18.0312C20.9365 17.2402 21.1709 16.3711 21.1709 15.4238C21.1709 14.4766 20.9365 13.6123 20.4678 12.8311C19.999 12.04 19.374 11.415 18.5928 10.9561C17.8115 10.4873 16.9473 10.2529 16 10.2529C15.043 10.2529 14.1738 10.4873 13.3926 10.9561C12.6113 11.415 11.9863 12.04 11.5176 12.8311C11.0586 13.6123 10.8291 14.4766 10.8291 15.4238C10.8291 16.3711 11.0586 17.2402 11.5176 18.0312C11.9863 18.8125 12.6113 19.4375 13.3926 19.9062C14.1738 20.3652 15.043 20.5947 16 20.5947Z" fill="#ECECEC" fill-opacity="0.5"/>
</svg>
