<svg width="155" height="209" viewBox="0 0 155 209" fill="none" xmlns="http://www.w3.org/2000/svg">
<path d="M67.0469 208.102C54.026 208.102 42.5352 205.367 32.5742 199.898C22.6133 194.43 14.8008 186.454 9.13672 175.973C3.53776 165.491 0.738281 152.698 0.738281 137.594V54.7812C0.738281 49.5078 2.20312 45.3086 5.13281 42.1836C8.1276 38.9935 12.0013 37.3984 16.7539 37.3984C18.7721 37.3984 20.7253 37.7565 22.6133 38.4727C24.5013 39.1888 26.0964 40.263 27.3984 41.6953V29.7812C27.3984 24.5729 28.8633 20.4388 31.793 17.3789C34.7227 14.2539 38.5312 12.6914 43.2188 12.6914C47.1901 12.6914 50.4453 14.0586 52.9844 16.793C53.4401 12.1055 55.1654 8.26432 58.1602 5.26953C61.1549 2.27474 64.9961 0.777344 69.6836 0.777344C74.3711 0.777344 78.1471 2.24219 81.0117 5.17188C83.8763 8.10156 85.5039 12.0078 85.8945 16.8906C87.2617 15.4583 88.8242 14.4167 90.582 13.7656C92.3398 13.0495 94.2279 12.6914 96.2461 12.6914C101.259 12.6914 105.296 14.2539 108.355 17.3789C111.415 20.5039 112.945 24.7682 112.945 30.1719V113.375C112.945 113.961 113.173 114.254 113.629 114.254C114.02 114.254 114.312 114.026 114.508 113.57L122.809 92.7695C124.436 88.9935 126.585 86.1615 129.254 84.2734C131.988 82.3203 134.951 81.3438 138.141 81.3438C142.828 81.3438 146.734 82.8737 149.859 85.9336C153.049 88.9935 154.645 92.8672 154.645 97.5547C154.645 100.354 154.124 103.219 153.082 106.148L135.406 156.051C129.352 173.173 120.562 186.129 109.039 194.918C97.5156 203.707 83.5182 208.102 67.0469 208.102ZM66.7539 197.652C80.4258 197.652 92.3073 194.039 102.398 186.812C112.555 179.651 120.432 168.29 126.031 152.73L144.098 101.852C145.009 99.1823 145.139 96.8711 144.488 94.918C143.902 92.9648 142.503 91.5977 140.289 90.8164C138.336 90.0352 136.415 90.1003 134.527 91.0117C132.704 91.9232 131.272 93.6159 130.23 96.0898L116.754 127.242C115.842 129.326 114.736 130.79 113.434 131.637C112.132 132.418 110.699 132.809 109.137 132.809C107.314 132.809 105.784 132.223 104.547 131.051C103.31 129.814 102.691 128.121 102.691 125.973V30.8555C102.691 28.3815 102.008 26.3633 100.641 24.8008C99.2734 23.2383 97.418 22.457 95.0742 22.457C92.6654 22.457 90.7122 23.2383 89.2148 24.8008C87.7826 26.3633 87.0664 28.3815 87.0664 30.8555V99.8008C87.0664 101.168 86.5781 102.372 85.6016 103.414C84.6901 104.391 83.5508 104.879 82.1836 104.879C80.7513 104.879 79.5794 104.391 78.668 103.414C77.7565 102.372 77.3008 101.168 77.3008 99.8008V19.2344C77.3008 16.7604 76.5846 14.7096 75.1523 13.082C73.7201 11.3893 71.8971 10.543 69.6836 10.543C67.2747 10.543 65.3216 11.3893 63.8242 13.082C62.3919 14.7096 61.6758 16.7604 61.6758 19.2344V99.7031C61.6758 101.331 61.1549 102.6 60.1133 103.512C59.1367 104.423 57.9974 104.879 56.6953 104.879C55.4583 104.879 54.319 104.423 53.2773 103.512C52.3008 102.6 51.8125 101.331 51.8125 99.7031V30.8555C51.8125 28.3815 51.0638 26.3633 49.5664 24.8008C48.1341 23.2383 46.2461 22.457 43.9023 22.457C41.4935 22.457 39.6055 23.2383 38.2383 24.8008C36.9362 26.3633 36.2852 28.3815 36.2852 30.8555V104.684C36.2852 106.311 35.7969 107.581 34.8203 108.492C33.8438 109.404 32.6719 109.859 31.3047 109.859C30.0677 109.859 28.9609 109.404 27.9844 108.492C27.0078 107.581 26.5195 106.311 26.5195 104.684V55.6602C26.5195 53.1862 25.7708 51.168 24.2734 49.6055C22.776 48.043 20.8555 47.2617 18.5117 47.2617C16.1029 47.2617 14.2148 48.043 12.8477 49.6055C11.5456 51.168 10.8945 53.1862 10.8945 55.6602V136.617C10.8945 149.833 13.2057 160.999 17.8281 170.113C22.4505 179.163 28.9284 185.999 37.2617 190.621C45.6602 195.309 55.4909 197.652 66.7539 197.652Z" fill="#F24A4A"/>
</svg>
