<svg width="1752" height="1212" viewBox="0 0 1752 1212" fill="none" xmlns="http://www.w3.org/2000/svg">
<path opacity="0.3" fill-rule="evenodd" clip-rule="evenodd" d="M277.393 2.00626C310.042 111.143 375.34 261.272 465.29 356.445C510.286 404.054 561.741 438.217 618.651 446.261C675.698 454.324 737.548 436.052 803.018 380.165C1061.43 159.577 1385.31 181.073 1514.75 219.359L1516.74 212.647C1385.85 173.933 1059.26 152.229 798.474 374.841C734.144 429.754 674.24 447.049 619.631 439.33C564.886 431.592 514.785 398.623 470.377 351.637C381.518 257.618 316.617 108.697 284.099 0L277.393 2.00626ZM214.503 114.665C152.574 105.406 78.2483 116.614 28.6505 129.884L26.8413 123.122C76.9102 109.726 152.284 98.2843 215.538 107.742C247.174 112.472 276.121 122.479 297.316 140.416C318.644 158.465 331.835 184.308 332.246 219.963C332.757 264.317 315.676 302.365 292.436 336.226C274.793 361.933 253.416 385.465 233.358 407.544L233.358 407.544L233.357 407.545L233.356 407.546L233.356 407.546L233.356 407.547L233.355 407.547L233.35 407.553L233.344 407.559C227.068 414.468 220.921 421.235 215.058 427.881C190.211 456.05 170.669 481.852 166.043 507.843C161.521 533.252 171.177 559.782 207.477 589.806C225.595 604.792 252.824 620.703 286.539 637.475C320.21 654.225 360.151 671.737 403.569 689.963C431.484 701.681 460.841 713.696 490.873 725.987C554.174 751.894 620.472 779.027 682.567 807.191C774.073 848.694 856.989 892.661 908.179 938.65C933.776 961.646 951.77 985.434 958.708 1009.99C965.708 1034.77 961.331 1059.91 943.079 1085.06L937.413 1080.95C954.536 1057.35 958.331 1034.41 951.971 1011.9C945.55 989.166 928.654 966.454 903.501 943.857C853.19 898.658 771.169 855.063 679.675 813.566C617.698 785.456 551.621 758.413 488.386 732.534L488.38 732.531L488.375 732.529C458.312 720.226 428.892 708.185 400.86 696.418C357.403 678.175 317.297 660.594 283.421 643.742C249.59 626.913 221.772 610.714 203.015 595.2C165.565 564.224 154.033 535.379 159.152 506.616C164.167 478.435 185.094 451.269 209.809 423.25C215.818 416.438 222.064 409.562 228.403 402.583L228.403 402.583L228.404 402.582C248.397 380.572 269.318 357.54 286.665 332.265C309.441 299.079 325.735 262.439 325.246 220.044C324.857 186.298 312.482 162.421 292.794 145.759C272.975 128.986 245.459 119.293 214.503 114.665ZM44.5199 652.503C21.4335 729.279 4.76688 804.724 7.2437 869.369C8.47301 901.454 16.7813 925.142 30.5974 942.458C44.4147 959.776 64.0185 971.07 88.4789 977.857C137.622 991.493 205.407 986.698 282.176 976.844C305.285 973.878 329.191 970.456 353.592 966.963C409.931 958.899 468.902 950.458 526.766 946.379C609.73 940.531 691.024 943.585 759.987 969.731C787.475 980.152 807.492 991.075 821.015 1002.41C834.56 1013.76 841.815 1025.72 843.206 1038.15C844.595 1050.58 840.051 1062.75 831.49 1074.38C822.939 1085.99 810.202 1097.3 794.651 1108.17C732.565 1151.57 622.7 1189.87 540.653 1211.88L538.839 1205.12C620.792 1183.14 729.628 1145.08 790.641 1102.43C805.865 1091.79 817.929 1080.99 825.854 1070.23C833.769 1059.48 837.379 1049.03 836.249 1038.93C835.121 1028.85 829.185 1018.39 816.519 1007.77C803.832 997.141 784.617 986.555 757.506 976.276C689.968 950.671 609.888 947.538 527.258 953.362C469.654 957.422 411.106 965.803 354.879 973.852L354.878 973.852L354.869 973.854C330.406 977.356 306.382 980.794 283.067 983.787C206.461 993.621 137.308 998.67 86.6074 984.602C61.1459 977.538 40.1012 965.594 25.1256 946.824C10.1488 928.053 1.51953 902.802 0.248833 869.637C-2.27434 803.782 14.6841 727.416 37.8164 650.488C52.1522 602.813 68.9502 554.654 85.0351 508.539L85.0357 508.537L85.0372 508.533L85.0381 508.53C94.8842 480.301 104.463 452.839 113.046 426.723C124.377 392.246 133.998 360.053 140.318 331.306C146.646 302.521 149.612 277.414 147.776 257.044C145.943 236.706 139.374 221.511 127.032 211.876C114.635 202.199 95.7298 197.591 68.0485 199.99L67.4441 193.016C96.0128 190.54 116.983 195.151 131.339 206.359C145.751 217.609 152.815 234.965 154.748 256.416C156.678 277.835 153.542 303.755 147.155 332.808C140.76 361.899 131.053 394.354 119.696 428.909C111.027 455.288 101.41 482.854 91.5495 511.121L91.5489 511.123C75.5119 557.095 58.8284 604.92 44.5199 652.503ZM1362.59 455.337C1261.15 509.787 1112.45 563.129 922.983 603.925C827.898 624.399 761.58 618.948 711.093 600.797C660.641 582.658 626.38 551.957 595.349 522.804C593.565 521.128 591.793 519.458 590.029 517.797C560.981 490.429 534.405 465.39 498.94 453.059C461.545 440.057 413.716 441.063 342.066 470.245C306.178 484.861 283.393 499.602 271.166 513.908C265.089 521.018 261.705 527.922 260.517 534.576C259.333 541.204 260.283 547.83 263.268 554.494C269.308 567.98 283.66 581.553 305.146 594.674C326.535 607.736 354.552 620.084 387.258 631.318C518.179 676.287 722.165 702.715 869.876 687.023C990.458 674.212 1075.42 748.634 1132.4 845.592C1189.38 942.555 1218.93 1062.86 1228.72 1144.08L1221.77 1144.92C1212.06 1064.31 1182.71 945.017 1126.37 849.139C1070.02 753.255 987.234 681.594 870.615 693.984C721.826 709.791 516.812 683.219 384.984 637.938C352.002 626.61 323.472 614.067 301.498 600.648C279.621 587.289 263.793 572.792 256.88 557.356C253.388 549.559 252.168 541.511 253.626 533.345C255.08 525.205 259.15 517.193 265.845 509.36C279.161 493.779 303.188 478.52 339.425 463.762C412.026 434.193 461.696 432.699 501.239 446.447C538.17 459.288 565.784 485.319 594.545 512.432L594.569 512.454C596.421 514.2 598.278 515.951 600.142 517.702C631.112 546.799 664.475 576.598 713.461 594.21C762.411 611.808 827.344 617.358 921.509 597.082C1110.55 556.377 1258.59 503.22 1359.28 449.169C1409.63 422.138 1448.02 394.954 1473.76 369.096C1499.58 343.158 1512.25 319.004 1512.25 298.003H1519.25C1519.25 321.752 1505.04 347.598 1478.72 374.035C1452.32 400.552 1413.29 428.118 1362.59 455.337ZM1212.51 717.268C1225.22 684.461 1254.99 654.584 1295.58 627.825C1336.09 601.109 1386.99 577.756 1441.35 557.839C1550.06 518.01 1672.09 492.108 1751.26 480.466L1750.24 473.54C1670.74 485.232 1548.22 511.23 1438.94 551.267C1384.31 571.284 1332.86 594.856 1291.72 621.981C1250.65 649.064 1219.47 679.946 1205.98 714.738C1192.3 750.036 1202.42 787.787 1226.86 825.152C1251.31 862.528 1290.43 900.097 1336.01 935.529C1427.21 1006.42 1545.08 1069.38 1625.81 1105.7L1628.68 1099.31C1548.25 1063.13 1430.92 1000.44 1340.31 930.002C1294.98 894.772 1256.55 857.759 1232.72 821.32C1208.88 784.869 1199.99 749.57 1212.51 717.268Z" fill="url(#paint0_radial_2888_2005)"/>
<defs>
<radialGradient id="paint0_radial_2888_2005" cx="0" cy="0" r="1" gradientUnits="userSpaceOnUse" gradientTransform="translate(880.628 605.942) rotate(90) scale(605.942 870.628)">
<stop offset="0.19" stop-color="#4A89FF" stop-opacity="0"/>
<stop offset="0.83" stop-color="#4A89FF" stop-opacity="0.25"/>
<stop offset="1" stop-color="#4A89FF" stop-opacity="0"/>
</radialGradient>
</defs>
</svg>
