<svg width="11" height="11" viewBox="0 0 11 11" fill="none" xmlns="http://www.w3.org/2000/svg">
<path d="M5.5 10.4551C4.81966 10.4551 4.17839 10.3249 3.57617 10.0645C2.97721 9.80404 2.44824 9.44434 1.98926 8.98535C1.53027 8.52637 1.17057 7.9974 0.910156 7.39844C0.64974 6.79622 0.519531 6.15495 0.519531 5.47461C0.519531 4.86589 0.626953 4.28809 0.841797 3.74121C1.05664 3.19108 1.34961 2.69792 1.7207 2.26172C1.80859 2.1543 1.91113 2.09733 2.02832 2.09082C2.14876 2.08105 2.24967 2.11849 2.33105 2.20312C2.41243 2.28776 2.4515 2.38379 2.44824 2.49121C2.44499 2.59863 2.40755 2.69954 2.33594 2.79395C2.02669 3.15202 1.78581 3.56055 1.61328 4.01953C1.44076 4.47526 1.35286 4.96029 1.34961 5.47461C1.34961 6.05078 1.4554 6.58952 1.66699 7.09082C1.88184 7.59212 2.17806 8.0332 2.55566 8.41406C2.93652 8.79167 3.3776 9.08789 3.87891 9.30273C4.38346 9.51758 4.92383 9.625 5.5 9.625C6.07617 9.625 6.61491 9.51758 7.11621 9.30273C7.61751 9.08789 8.05697 8.79167 8.43457 8.41406C8.81543 8.0332 9.11165 7.59212 9.32324 7.09082C9.53809 6.58952 9.64551 6.05078 9.64551 5.47461C9.64551 4.89844 9.53809 4.3597 9.32324 3.8584C9.11165 3.35384 8.81543 2.91276 8.43457 2.53516C8.05697 2.1543 7.61751 1.85807 7.11621 1.64648C6.61491 1.43164 6.07454 1.32422 5.49512 1.32422L5.83691 0.894531V2.79395C5.83691 2.90137 5.80273 2.99251 5.73438 3.06738C5.66927 3.139 5.58301 3.1748 5.47559 3.1748C5.37142 3.1748 5.28516 3.139 5.2168 3.06738C5.15169 2.99251 5.11914 2.90137 5.11914 2.79395V0.904297C5.11914 0.777344 5.15007 0.67806 5.21191 0.606445C5.27702 0.531576 5.37467 0.494141 5.50488 0.494141C6.18522 0.494141 6.82487 0.624349 7.42383 0.884766C8.02604 1.14518 8.55501 1.50488 9.01074 1.96387C9.46973 2.42285 9.82943 2.95345 10.0898 3.55566C10.3503 4.15462 10.4805 4.79427 10.4805 5.47461C10.4805 6.15495 10.3503 6.79622 10.0898 7.39844C9.82943 7.9974 9.46973 8.52637 9.01074 8.98535C8.55176 9.44434 8.02116 9.80404 7.41895 10.0645C6.81999 10.3249 6.18034 10.4551 5.5 10.4551ZM5.5 6.26074C5.35352 6.26074 5.22168 6.22493 5.10449 6.15332C4.9873 6.07845 4.88965 5.98079 4.81152 5.86035L3.18555 3.42871C3.13021 3.34408 3.11393 3.26758 3.13672 3.19922C3.16276 3.1276 3.21159 3.07878 3.2832 3.05273C3.35482 3.02669 3.42969 3.04297 3.50781 3.10156L5.9541 4.83008C6.05501 4.90169 6.13639 4.99447 6.19824 5.1084C6.26009 5.21908 6.29102 5.34115 6.29102 5.47461C6.29102 5.69271 6.21289 5.87826 6.05664 6.03125C5.90365 6.18424 5.7181 6.26074 5.5 6.26074Z" fill="#ECECEC" fill-opacity="0.5"/>
</svg>
