<svg width="14" height="17" viewBox="0 0 14 17" fill="none" xmlns="http://www.w3.org/2000/svg">
<path d="M0.101562 9.9375C0.101562 8.98438 0.278646 8.09115 0.632812 7.25781C0.992188 6.42448 1.48698 5.69271 2.11719 5.0625C2.7526 4.42708 3.48698 3.93229 4.32031 3.57812C5.15365 3.21875 6.04688 3.03906 7 3.03906C7.23958 3.03906 7.47396 3.05208 7.70312 3.07812C7.93229 3.09896 8.14583 3.13021 8.34375 3.17188L6.27344 1.10156C6.21615 1.03906 6.17188 0.96875 6.14062 0.890625C6.11458 0.8125 6.10156 0.734375 6.10156 0.65625C6.10156 0.473958 6.15885 0.322917 6.27344 0.203125C6.39323 0.078125 6.53906 0.015625 6.71094 0.015625C6.90365 0.015625 7.05729 0.078125 7.17188 0.203125L10.3828 3.46875C10.5182 3.60417 10.5859 3.76042 10.5859 3.9375C10.5859 4.02604 10.5703 4.10938 10.5391 4.1875C10.5078 4.26562 10.4557 4.33854 10.3828 4.40625L7.16406 7.64062C7.03906 7.76042 6.88802 7.82031 6.71094 7.82031C6.53906 7.82031 6.39323 7.76042 6.27344 7.64062C6.15885 7.52083 6.10156 7.3724 6.10156 7.19531C6.10156 7.11198 6.11458 7.03385 6.14062 6.96094C6.16667 6.88281 6.21354 6.8125 6.28125 6.75L8.60938 4.4375C8.38021 4.38542 8.1276 4.34896 7.85156 4.32812C7.58073 4.30208 7.29688 4.28906 7 4.28906C6.22396 4.28906 5.49479 4.4349 4.8125 4.72656C4.13021 5.01823 3.52865 5.42448 3.00781 5.94531C2.49219 6.46094 2.08854 7.0599 1.79688 7.74219C1.50521 8.42448 1.35938 9.15365 1.35938 9.92969C1.35938 10.7109 1.50521 11.4427 1.79688 12.125C2.08854 12.8073 2.49219 13.4062 3.00781 13.9219C3.52865 14.4375 4.13021 14.8411 4.8125 15.1328C5.49479 15.4245 6.22396 15.5703 7 15.5703C7.78125 15.5703 8.51302 15.4245 9.19531 15.1328C9.8776 14.8411 10.4766 14.4375 10.9922 13.9219C11.5078 13.4062 11.9115 12.8073 12.2031 12.125C12.4948 11.4427 12.6406 10.7109 12.6406 9.92969C12.6406 9.74219 12.6953 9.58854 12.8047 9.46875C12.9141 9.34375 13.0625 9.28125 13.25 9.28125C13.4427 9.28125 13.599 9.34375 13.7188 9.46875C13.8385 9.58854 13.8984 9.74479 13.8984 9.9375C13.8984 10.8906 13.7188 11.7839 13.3594 12.6172C13.0052 13.4505 12.5104 14.1849 11.875 14.8203C11.2448 15.4505 10.513 15.9427 9.67969 16.2969C8.84635 16.6562 7.95312 16.8359 7 16.8359C6.04688 16.8359 5.15365 16.6562 4.32031 16.2969C3.48698 15.9427 2.7526 15.4505 2.11719 14.8203C1.48698 14.1849 0.992188 13.4505 0.632812 12.6172C0.278646 11.7839 0.101562 10.8906 0.101562 9.9375Z" fill="#ECECEC" fill-opacity="0.75"/>
</svg>
