<svg width="15" height="14" viewBox="0 0 15 14" fill="none" xmlns="http://www.w3.org/2000/svg">
<path d="M3.08984 13.8467C2.37891 13.8467 1.84342 13.6689 1.4834 13.3135C1.12337 12.9626 0.943359 12.4339 0.943359 11.7275V3.85254C0.943359 3.14616 1.12337 2.61751 1.4834 2.2666C1.84342 1.91113 2.37891 1.7334 3.08984 1.7334H10.835L9.73438 2.83398H3.11035C2.76855 2.83398 2.50423 2.92513 2.31738 3.10742C2.13509 3.28971 2.04395 3.55859 2.04395 3.91406V11.6729C2.04395 12.0283 2.13509 12.2972 2.31738 12.4795C2.50423 12.6572 2.76855 12.7461 3.11035 12.7461H11.1016C11.3385 12.7461 11.5391 12.6572 11.7031 12.4795C11.8717 12.2972 11.9561 12.0283 11.9561 11.6729V5.11035L13.0566 4.00977V11.7275C13.0566 12.4339 12.8857 12.9626 12.5439 13.3135C12.2067 13.6689 11.7305 13.8467 11.1152 13.8467H3.08984ZM5.57812 9.41699C5.51432 9.44434 5.45508 9.43066 5.40039 9.37598C5.35026 9.31673 5.33887 9.25749 5.36621 9.19824L5.98145 7.91309L12.3594 1.53516L13.2959 2.45801L6.91113 8.83594L5.57812 9.41699ZM13.8018 1.95898L12.8652 1.01562L13.3643 0.523438C13.4782 0.414062 13.6081 0.354818 13.7539 0.345703C13.9043 0.336589 14.0319 0.38444 14.1367 0.489258L14.2939 0.65332C14.4124 0.767253 14.4694 0.899414 14.4648 1.0498C14.4648 1.19564 14.4079 1.33008 14.2939 1.45312L13.8018 1.95898Z" fill="#ECECEC" fill-opacity="0.75"/>
</svg>
