<svg width="24" height="24" viewBox="0 0 24 24" fill="none" xmlns="http://www.w3.org/2000/svg">
<path d="M4.29688 23.5586C3.07812 23.5586 2.16016 23.2539 1.54297 22.6445C0.925781 22.043 0.617188 21.1367 0.617188 19.9258V6.42578C0.617188 5.21484 0.925781 4.30859 1.54297 3.70703C2.16016 3.09766 3.07812 2.79297 4.29688 2.79297H17.5742L15.6875 4.67969H4.33203C3.74609 4.67969 3.29297 4.83594 2.97266 5.14844C2.66016 5.46094 2.50391 5.92188 2.50391 6.53125V19.832C2.50391 20.4414 2.66016 20.9023 2.97266 21.2148C3.29297 21.5195 3.74609 21.6719 4.33203 21.6719H18.0312C18.4375 21.6719 18.7812 21.5195 19.0625 21.2148C19.3516 20.9023 19.4961 20.4414 19.4961 19.832V8.58203L21.3828 6.69531V19.9258C21.3828 21.1367 21.0898 22.043 20.5039 22.6445C19.9258 23.2539 19.1094 23.5586 18.0547 23.5586H4.29688ZM8.5625 15.9648C8.45312 16.0117 8.35156 15.9883 8.25781 15.8945C8.17188 15.793 8.15234 15.6914 8.19922 15.5898L9.25391 13.3867L20.1875 2.45312L21.793 4.03516L10.8477 14.9688L8.5625 15.9648ZM22.6602 3.17969L21.0547 1.5625L21.9102 0.71875C22.1055 0.53125 22.3281 0.429687 22.5781 0.414062C22.8359 0.398438 23.0547 0.480469 23.2344 0.660156L23.5039 0.941406C23.707 1.13672 23.8047 1.36328 23.7969 1.62109C23.7969 1.87109 23.6992 2.10156 23.5039 2.3125L22.6602 3.17969Z" fill="#4A89FF"/>
</svg>
