<svg width="42" height="54" viewBox="0 0 42 54" fill="none" xmlns="http://www.w3.org/2000/svg">
<path d="M8.03613 53.0449C5.51335 53.0449 3.61719 52.4102 2.34766 51.1406C1.0944 49.8711 0.467773 47.9587 0.467773 45.4033V8.36719C0.467773 5.82812 1.0944 3.91569 2.34766 2.62988C3.61719 1.34408 5.51335 0.701172 8.03613 0.701172H19.6328C20.5443 0.701172 21.3418 0.766276 22.0254 0.896484C22.7253 1.01042 23.3682 1.23828 23.9541 1.58008C24.54 1.9056 25.1423 2.38574 25.7607 3.02051L39.2129 16.7168C39.8639 17.3841 40.3522 18.0189 40.6777 18.6211C41.0195 19.207 41.2474 19.8581 41.3613 20.5742C41.4753 21.2904 41.5322 22.1774 41.5322 23.2354V45.4033C41.5322 47.9424 40.8975 49.8467 39.6279 51.1162C38.3747 52.402 36.4867 53.0449 33.9639 53.0449H8.03613ZM8.20703 49.1143H33.7686C35.0381 49.1143 35.9902 48.7887 36.625 48.1377C37.276 47.4867 37.6016 46.5508 37.6016 45.3301V23.4062H23.6855C22.1556 23.4062 21.0081 23.0238 20.2432 22.2588C19.4782 21.4938 19.0957 20.3464 19.0957 18.8164V4.63184H8.23145C6.96191 4.63184 6.00163 4.96549 5.35059 5.63281C4.71582 6.30013 4.39844 7.236 4.39844 8.44043V45.3301C4.39844 46.5508 4.71582 47.4867 5.35059 48.1377C6.00163 48.7887 6.95378 49.1143 8.20703 49.1143ZM24.125 19.7197H36.8447L22.7822 5.38867V18.3525C22.7822 18.8408 22.8799 19.1908 23.0752 19.4023C23.2868 19.6139 23.6367 19.7197 24.125 19.7197Z" fill="#ECECEC" fill-opacity="0.75"/>
</svg>
