<svg width="20" height="18" viewBox="0 0 20 18" fill="none" xmlns="http://www.w3.org/2000/svg">
<path d="M10.793 14.833C10.6243 14.833 10.4671 14.7965 10.3213 14.7236C10.1755 14.6553 10.0205 14.5436 9.85645 14.3887L4.46289 9.2959C4.33073 9.17285 4.23958 9.04753 4.18945 8.91992C4.13932 8.79232 4.11426 8.67383 4.11426 8.56445C4.11426 8.45052 4.13932 8.32975 4.18945 8.20215C4.23958 8.07454 4.33073 7.94922 4.46289 7.82617L9.85645 2.78125C10.0387 2.60807 10.196 2.48503 10.3281 2.41211C10.4603 2.33464 10.6107 2.2959 10.7793 2.2959C11.0208 2.2959 11.2168 2.37793 11.3672 2.54199C11.5176 2.70605 11.5928 2.90202 11.5928 3.12988V5.71387H11.791C13.0215 5.71387 14.0811 5.90299 14.9697 6.28125C15.863 6.65951 16.5944 7.20638 17.1641 7.92188C17.7383 8.63737 18.1621 9.50098 18.4355 10.5127C18.7135 11.5199 18.8525 12.6546 18.8525 13.917C18.8525 14.2132 18.7796 14.4388 18.6338 14.5938C18.4925 14.7533 18.3307 14.833 18.1484 14.833C18.0026 14.833 17.8545 14.8034 17.7041 14.7441C17.5583 14.6849 17.4261 14.5459 17.3076 14.3271C16.9111 13.5798 16.4531 12.9964 15.9336 12.5771C15.4141 12.1533 14.8148 11.8548 14.1357 11.6816C13.4567 11.5085 12.6751 11.4219 11.791 11.4219H11.5928V14.0332C11.5928 14.2656 11.5176 14.457 11.3672 14.6074C11.2168 14.7578 11.0254 14.833 10.793 14.833ZM10.4033 13.3633C10.4626 13.3633 10.4922 13.3291 10.4922 13.2607V10.6152C10.4922 10.4648 10.5697 10.3896 10.7246 10.3896H11.6406C12.7207 10.3896 13.6709 10.5081 14.4912 10.7451C15.3115 10.9775 15.9951 11.3079 16.542 11.7363C17.0889 12.1647 17.4967 12.6637 17.7656 13.2334C17.7747 13.2562 17.7839 13.2744 17.793 13.2881C17.8021 13.2972 17.8135 13.3018 17.8271 13.3018C17.8636 13.3018 17.8818 13.2767 17.8818 13.2266C17.8545 12.584 17.7679 11.9505 17.6221 11.3262C17.4808 10.6973 17.2643 10.1071 16.9727 9.55566C16.681 9.00423 16.2982 8.51888 15.8242 8.09961C15.3503 7.67578 14.7692 7.34538 14.0811 7.1084C13.3929 6.86686 12.5794 6.74609 11.6406 6.74609H10.7246C10.5697 6.74609 10.4922 6.6709 10.4922 6.52051V3.80664C10.4922 3.74284 10.4603 3.71094 10.3965 3.71094C10.3737 3.71094 10.3532 3.71777 10.335 3.73145C10.3167 3.74056 10.2985 3.75195 10.2803 3.76562L5.41309 8.43457C5.36296 8.48014 5.33789 8.52344 5.33789 8.56445C5.33789 8.58268 5.34245 8.60319 5.35156 8.62598C5.36523 8.64421 5.38574 8.66699 5.41309 8.69434L10.2803 13.3018C10.3213 13.3428 10.3623 13.3633 10.4033 13.3633ZM7.38867 14.833C7.22005 14.833 7.06055 14.7965 6.91016 14.7236C6.76432 14.6553 6.61165 14.5436 6.45215 14.3887L1.05176 9.2959C0.924154 9.17285 0.835286 9.04753 0.785156 8.91992C0.735026 8.79232 0.709961 8.67383 0.709961 8.56445C0.709961 8.45052 0.732747 8.32975 0.77832 8.20215C0.828451 8.07454 0.919596 7.94922 1.05176 7.82617L6.45215 2.78125C6.63444 2.60807 6.79167 2.48503 6.92383 2.41211C7.05599 2.33464 7.20638 2.2959 7.375 2.2959C7.61198 2.2959 7.80566 2.37793 7.95605 2.54199C8.111 2.70605 8.18848 2.90202 8.18848 3.12988V4.8457L7.08789 5.71387V3.80664C7.08789 3.74284 7.05599 3.71094 6.99219 3.71094C6.9694 3.71094 6.94889 3.71777 6.93066 3.73145C6.91243 3.74056 6.89421 3.75195 6.87598 3.76562L2.00879 8.43457C1.95866 8.48014 1.93359 8.52344 1.93359 8.56445C1.93359 8.58268 1.93815 8.60319 1.94727 8.62598C1.96094 8.64421 1.98145 8.66699 2.00879 8.69434L6.87598 13.3018C6.91699 13.3428 6.95573 13.3633 6.99219 13.3633C7.05599 13.3633 7.08789 13.3291 7.08789 13.2607V11.4014L8.18848 12.2764V14.0332C8.18848 14.2656 8.11328 14.457 7.96289 14.6074C7.8125 14.7578 7.62109 14.833 7.38867 14.833Z" fill="#ECECEC" fill-opacity="0.75"/>
</svg>
