<svg width="26" height="27" viewBox="0 0 26 27" fill="none" xmlns="http://www.w3.org/2000/svg">
<path d="M3.05078 12.5859C3.05078 11.2969 3.29297 10.0898 3.77734 8.96484C4.26172 7.83203 4.93359 6.83594 5.79297 5.97656C6.65234 5.11719 7.64453 4.44531 8.76953 3.96094C9.90234 3.47656 11.1133 3.23438 12.4023 3.23438C13.6914 3.23438 14.8984 3.47656 16.0234 3.96094C17.1562 4.44531 18.1523 5.11719 19.0117 5.97656C19.8711 6.83594 20.543 7.83203 21.0273 8.96484C21.5117 10.0898 21.7539 11.2969 21.7539 12.5859C21.7539 13.6562 21.582 14.6719 21.2383 15.6328C20.9023 16.5938 20.4336 17.4648 19.832 18.2461L25.5625 24.0117C25.6875 24.1367 25.7812 24.2812 25.8438 24.4453C25.9141 24.6094 25.9492 24.7852 25.9492 24.9727C25.9492 25.2305 25.8906 25.4648 25.7734 25.6758C25.6641 25.8867 25.5078 26.0508 25.3047 26.168C25.1016 26.293 24.8672 26.3555 24.6016 26.3555C24.4141 26.3555 24.2344 26.3203 24.0625 26.25C23.8984 26.1875 23.7461 26.0898 23.6055 25.957L17.8398 20.1797C17.0742 20.7266 16.2305 21.1562 15.3086 21.4688C14.3867 21.7812 13.418 21.9375 12.4023 21.9375C11.1133 21.9375 9.90234 21.6953 8.76953 21.2109C7.64453 20.7266 6.65234 20.0547 5.79297 19.1953C4.93359 18.3359 4.26172 17.3438 3.77734 16.2188C3.29297 15.0859 3.05078 13.875 3.05078 12.5859ZM5.05469 12.5859C5.05469 13.6016 5.24219 14.5547 5.61719 15.4453C6 16.3281 6.52734 17.1055 7.19922 17.7773C7.87891 18.4492 8.66016 18.9766 9.54297 19.3594C10.4336 19.7422 11.3867 19.9336 12.4023 19.9336C13.418 19.9336 14.3672 19.7422 15.25 19.3594C16.1406 18.9766 16.9219 18.4492 17.5938 17.7773C18.2656 17.1055 18.793 16.3281 19.1758 15.4453C19.5586 14.5547 19.75 13.6016 19.75 12.5859C19.75 11.5703 19.5586 10.6211 19.1758 9.73828C18.793 8.84766 18.2656 8.06641 17.5938 7.39453C16.9219 6.71484 16.1406 6.1875 15.25 5.8125C14.3672 5.42969 13.418 5.23828 12.4023 5.23828C11.3867 5.23828 10.4336 5.42969 9.54297 5.8125C8.66016 6.1875 7.87891 6.71484 7.19922 7.39453C6.52734 8.06641 6 8.84766 5.61719 9.73828C5.24219 10.6211 5.05469 11.5703 5.05469 12.5859Z" fill="#4A89FF"/>
</svg>
