<svg width="21" height="27" viewBox="0 0 21 27" fill="none" xmlns="http://www.w3.org/2000/svg">
<path d="M3.77344 26.3633C2.54688 26.3633 1.625 26.0586 1.00781 25.4492C0.398438 24.8477 0.09375 23.9414 0.09375 22.7305V11.1641C0.09375 9.95312 0.398438 9.04688 1.00781 8.44531C1.625 7.83594 2.54688 7.53125 3.77344 7.53125H7.35938V9.41797H3.79688C3.21094 9.41797 2.76172 9.57422 2.44922 9.88672C2.13672 10.1914 1.98047 10.6484 1.98047 11.2578V22.6367C1.98047 23.2461 2.13672 23.7031 2.44922 24.0078C2.76172 24.3203 3.21094 24.4766 3.79688 24.4766H17.1797C17.7578 24.4766 18.207 24.3203 18.5273 24.0078C18.8477 23.7031 19.0078 23.2461 19.0078 22.6367V11.2578C19.0078 10.6484 18.8477 10.1914 18.5273 9.88672C18.207 9.57422 17.7578 9.41797 17.1797 9.41797H13.6172V7.53125H17.2148C18.4414 7.53125 19.3594 7.83594 19.9688 8.44531C20.5859 9.04688 20.8945 9.95312 20.8945 11.1641V22.7305C20.8945 23.9414 20.5859 24.8477 19.9688 25.4492C19.3594 26.0586 18.4414 26.3633 17.2148 26.3633H3.77344ZM10.4883 17.1758C10.2383 17.1758 10.0195 17.0859 9.83203 16.9062C9.65234 16.7266 9.5625 16.5156 9.5625 16.2734V4.34375L9.63281 2.59766L8.97656 3.28906L7.16016 5.22266C6.99609 5.41016 6.78125 5.50391 6.51562 5.50391C6.27344 5.50391 6.07031 5.42578 5.90625 5.26953C5.75 5.11328 5.67188 4.91797 5.67188 4.68359C5.67188 4.45703 5.76562 4.25 5.95312 4.0625L9.80859 0.335938C9.93359 0.21875 10.0469 0.140625 10.1484 0.101562C10.2578 0.0546875 10.3711 0.03125 10.4883 0.03125C10.6133 0.03125 10.7266 0.0546875 10.8281 0.101562C10.9375 0.140625 11.0508 0.21875 11.168 0.335938L15.0352 4.0625C15.2148 4.25 15.3047 4.45703 15.3047 4.68359C15.3047 4.91797 15.2227 5.11328 15.0586 5.26953C14.8945 5.42578 14.6914 5.50391 14.4492 5.50391C14.1914 5.50391 13.9805 5.41016 13.8164 5.22266L12.0117 3.28906L11.3555 2.59766L11.4258 4.34375V16.2734C11.4258 16.5156 11.332 16.7266 11.1445 16.9062C10.9648 17.0859 10.7461 17.1758 10.4883 17.1758Z" fill="#ECECEC" fill-opacity="0.5"/>
</svg>
