<svg width="25" height="25" viewBox="0 0 25 25" fill="none" xmlns="http://www.w3.org/2000/svg">
<path d="M14.793 24.75C14.2461 24.75 13.8516 24.5547 13.6094 24.1641C13.3672 23.7734 13.1602 23.2852 12.9883 22.6992L10.5273 14.3438L2.06641 11.8594C1.50391 11.6875 1.03906 11.4844 0.671875 11.25C0.304688 11.0078 0.121094 10.6172 0.121094 10.0781C0.121094 9.65625 0.289062 9.29297 0.625 8.98828C0.960938 8.68359 1.375 8.4375 1.86719 8.25L22.0234 0.527344C22.2969 0.425781 22.5508 0.347656 22.7852 0.292969C23.0273 0.230469 23.2461 0.199219 23.4414 0.199219C23.8242 0.199219 24.125 0.308594 24.3438 0.527344C24.5625 0.746094 24.6719 1.04687 24.6719 1.42969C24.6719 1.63281 24.6406 1.85156 24.5781 2.08594C24.5234 2.32031 24.4453 2.57422 24.3438 2.84766L16.668 22.8984C16.4492 23.4609 16.1875 23.9102 15.8828 24.2461C15.5781 24.582 15.2148 24.75 14.793 24.75ZM11.0547 12.5625L19.1172 4.5C19.4375 4.17969 19.8164 3.83984 20.2539 3.48047C20.6914 3.12109 21.1055 2.78516 21.4961 2.47266C21.0586 2.67578 20.6133 2.88672 20.1602 3.10547C19.7148 3.31641 19.2578 3.51172 18.7891 3.69141L2.94531 9.69141C2.85938 9.72266 2.80078 9.75781 2.76953 9.79688C2.73828 9.82812 2.72266 9.86328 2.72266 9.90234C2.72266 9.94141 2.73828 9.97656 2.76953 10.0078C2.80859 10.0391 2.875 10.0664 2.96875 10.0898L11.0547 12.5625ZM14.9805 22.1719C15.0195 22.1719 15.0547 22.1523 15.0859 22.1133C15.1172 22.0742 15.1484 22.0117 15.1797 21.9258L21.1797 6.08203C21.3594 5.60547 21.5586 5.14063 21.7773 4.6875C21.9961 4.23437 22.207 3.78516 22.4102 3.33984C22.0977 3.73828 21.7578 4.16016 21.3906 4.60547C21.0312 5.05078 20.6914 5.43359 20.3711 5.75391L12.3086 13.8164L14.7812 21.9023C14.8125 21.9961 14.8398 22.0625 14.8633 22.1016C14.8945 22.1484 14.9336 22.1719 14.9805 22.1719Z" fill="#4A89FF"/>
</svg>
