<svg width="16" height="13" viewBox="0 0 16 13" fill="none" xmlns="http://www.w3.org/2000/svg">
<path d="M6.99512 12.833C6.8265 12.833 6.66927 12.7965 6.52344 12.7236C6.3776 12.6553 6.22266 12.5436 6.05859 12.3887L0.665039 7.2959C0.532878 7.17285 0.441732 7.04753 0.391602 6.91992C0.341471 6.79232 0.316406 6.67383 0.316406 6.56445C0.316406 6.45052 0.341471 6.32975 0.391602 6.20215C0.441732 6.07454 0.532878 5.94922 0.665039 5.82617L6.05859 0.78125C6.24089 0.608073 6.39811 0.485026 6.53027 0.412109C6.66243 0.334635 6.81283 0.295898 6.98145 0.295898C7.22298 0.295898 7.41895 0.37793 7.56934 0.541992C7.71973 0.706055 7.79492 0.902018 7.79492 1.12988V3.71387H7.99316C9.22363 3.71387 10.2832 3.90299 11.1719 4.28125C12.0651 4.65951 12.7965 5.20638 13.3662 5.92188C13.9404 6.63737 14.3643 7.50098 14.6377 8.5127C14.9157 9.51986 15.0547 10.6546 15.0547 11.917C15.0547 12.2132 14.9818 12.4388 14.8359 12.5938C14.6947 12.7533 14.5329 12.833 14.3506 12.833C14.2048 12.833 14.0566 12.8034 13.9062 12.7441C13.7604 12.6849 13.6283 12.5459 13.5098 12.3271C13.1133 11.5798 12.6553 10.9964 12.1357 10.5771C11.6162 10.1533 11.0169 9.85482 10.3379 9.68164C9.65885 9.50846 8.87728 9.42188 7.99316 9.42188H7.79492V12.0332C7.79492 12.2656 7.71973 12.457 7.56934 12.6074C7.41895 12.7578 7.22754 12.833 6.99512 12.833ZM6.60547 11.3633C6.66471 11.3633 6.69434 11.3291 6.69434 11.2607V8.61523C6.69434 8.46484 6.77181 8.38965 6.92676 8.38965H7.84277C8.92741 8.38965 9.8776 8.50814 10.6934 8.74512C11.5137 8.97754 12.1973 9.30794 12.7441 9.73633C13.291 10.1647 13.6989 10.6637 13.9678 11.2334C13.9769 11.2562 13.986 11.2744 13.9951 11.2881C14.0042 11.2972 14.0156 11.3018 14.0293 11.3018C14.0658 11.3018 14.084 11.2767 14.084 11.2266C14.0566 10.584 13.9701 9.95052 13.8242 9.32617C13.6829 8.69727 13.4665 8.1071 13.1748 7.55566C12.8831 7.00423 12.5003 6.51888 12.0264 6.09961C11.5524 5.67578 10.9714 5.34538 10.2832 5.1084C9.59505 4.86686 8.78158 4.74609 7.84277 4.74609H6.92676C6.77181 4.74609 6.69434 4.6709 6.69434 4.52051V1.80664C6.69434 1.74284 6.66243 1.71094 6.59863 1.71094C6.57585 1.71094 6.55534 1.71777 6.53711 1.73145C6.51888 1.74056 6.50065 1.75195 6.48242 1.76562L1.61523 6.43457C1.5651 6.48014 1.54004 6.52344 1.54004 6.56445C1.54004 6.58268 1.5446 6.60319 1.55371 6.62598C1.56738 6.64421 1.58789 6.66699 1.61523 6.69434L6.48926 11.3018C6.52572 11.3428 6.56445 11.3633 6.60547 11.3633Z" fill="#ECECEC" fill-opacity="0.75"/>
</svg>
