<svg width="20" height="12" viewBox="0 0 20 12" fill="none" xmlns="http://www.w3.org/2000/svg">
<path d="M10.0967 10.6249C9.70614 11.0154 9.07297 11.0154 8.68245 10.6249L4.77656 6.71902C4.57943 6.5219 4.57954 6.20226 4.77681 6.00527C4.97387 5.80848 5.29313 5.80859 5.49006 6.00552L8.68245 9.19792C9.07297 9.58844 9.70614 9.58844 10.0967 9.19792L18.1886 1.10602C18.3857 0.908898 18.7053 0.90901 18.9023 1.10627C19.0991 1.30334 19.099 1.62259 18.9021 1.81952L10.0967 10.6249Z" fill="#ECECEC"/>
<path d="M6.09666 10.6249C5.70614 11.0154 5.07297 11.0154 4.68245 10.6249L0.776556 6.71902C0.579431 6.5219 0.579543 6.20226 0.776806 6.00527C0.973874 5.80848 1.29313 5.80859 1.49006 6.00552L4.68245 9.19792C5.07297 9.58844 5.70614 9.58844 6.09666 9.19792L14.1886 1.10602C14.3857 0.908898 14.7053 0.90901 14.9023 1.10627C15.0991 1.30334 15.099 1.62259 14.9021 1.81952L6.09666 10.6249Z" fill="#ECECEC"/>
</svg>
