<svg width="16" height="19" viewBox="0 0 16 19" fill="none" xmlns="http://www.w3.org/2000/svg">
<path d="M5.6875 15.8516C5.54167 15.8516 5.42448 15.8099 5.33594 15.7266C5.2474 15.6432 5.20052 15.5312 5.19531 15.3906L4.96094 7.03906C4.95573 6.90365 4.9974 6.79427 5.08594 6.71094C5.17969 6.6224 5.29948 6.57812 5.44531 6.57812C5.58594 6.57812 5.70052 6.61979 5.78906 6.70312C5.88281 6.78646 5.92969 6.89583 5.92969 7.03125L6.17188 15.3906C6.17188 15.526 6.1276 15.638 6.03906 15.7266C5.95052 15.8099 5.83333 15.8516 5.6875 15.8516ZM8 15.8516C7.85417 15.8516 7.73438 15.8099 7.64062 15.7266C7.54688 15.638 7.5 15.526 7.5 15.3906V7.03906C7.5 6.90365 7.54688 6.79427 7.64062 6.71094C7.73438 6.6224 7.85417 6.57812 8 6.57812C8.15104 6.57812 8.27344 6.6224 8.36719 6.71094C8.46094 6.79427 8.50781 6.90365 8.50781 7.03906V15.3906C8.50781 15.526 8.46094 15.638 8.36719 15.7266C8.27344 15.8099 8.15104 15.8516 8 15.8516ZM10.3203 15.8516C10.1693 15.8516 10.0495 15.8099 9.96094 15.7266C9.8724 15.638 9.83073 15.526 9.83594 15.3906L10.0703 7.03906C10.0755 6.89844 10.1224 6.78646 10.2109 6.70312C10.2995 6.61979 10.4141 6.57812 10.5547 6.57812C10.7057 6.57812 10.8255 6.6224 10.9141 6.71094C11.0026 6.79427 11.0443 6.90365 11.0391 7.03906L10.8047 15.3906C10.7995 15.5312 10.7526 15.6432 10.6641 15.7266C10.5755 15.8099 10.4609 15.8516 10.3203 15.8516ZM4.57031 4.53906V2.78906C4.57031 2.22656 4.74219 1.78385 5.08594 1.46094C5.4349 1.13281 5.90885 0.96875 6.50781 0.96875H9.47656C10.0755 0.96875 10.5469 1.13281 10.8906 1.46094C11.2396 1.78385 11.4141 2.22656 11.4141 2.78906V4.53906H10.1719V2.86719C10.1719 2.64844 10.099 2.47135 9.95312 2.33594C9.8125 2.20052 9.625 2.13281 9.39062 2.13281H6.59375C6.35938 2.13281 6.16927 2.20052 6.02344 2.33594C5.88281 2.47135 5.8125 2.64844 5.8125 2.86719V4.53906H4.57031ZM1.02344 5.16406C0.867188 5.16406 0.729167 5.10677 0.609375 4.99219C0.494792 4.8724 0.4375 4.73177 0.4375 4.57031C0.4375 4.41406 0.494792 4.27865 0.609375 4.16406C0.729167 4.04427 0.867188 3.98438 1.02344 3.98438H14.9844C15.1406 3.98438 15.276 4.04167 15.3906 4.15625C15.5052 4.27083 15.5625 4.40885 15.5625 4.57031C15.5625 4.73177 15.5052 4.8724 15.3906 4.99219C15.2812 5.10677 15.1458 5.16406 14.9844 5.16406H1.02344ZM4.42188 18.3672C3.85938 18.3672 3.40365 18.2005 3.05469 17.8672C2.71094 17.5391 2.52604 17.0938 2.5 16.5312L1.94531 5.01562H3.17188L3.72656 16.3906C3.73698 16.6198 3.81771 16.8099 3.96875 16.9609C4.11979 17.112 4.30729 17.1875 4.53125 17.1875H11.4609C11.6901 17.1875 11.8802 17.112 12.0312 16.9609C12.1823 16.8151 12.263 16.625 12.2734 16.3906L12.7969 5.01562H14.0547L13.5078 16.5234C13.4818 17.0859 13.2943 17.5339 12.9453 17.8672C12.5964 18.2005 12.1432 18.3672 11.5859 18.3672H4.42188Z" fill="#F24747"/>
</svg>
