<svg width="381" height="381" viewBox="0 0 381 381" fill="none" xmlns="http://www.w3.org/2000/svg">
<rect width="381" height="381" rx="190.5" fill="black"/>
<path d="M97.3768 105.735C95.3834 107.307 95 109.338 95 118.002C95.0383 128.353 96.4184 137.86 99.8303 151.508C103.587 166.574 107.957 176.771 112.826 181.946C113.67 182.866 114.36 183.633 114.36 183.71C114.36 183.786 113.401 185.55 112.213 187.62C111.024 189.728 109.376 192.757 108.571 194.367L107.076 197.357H112.864H118.653L116.123 200.386C108.226 209.855 101.019 224.154 100.29 231.744C100.175 233.086 100.137 234.16 100.214 234.16C100.329 234.16 101.862 233.546 103.626 232.78C106.961 231.399 112.213 229.943 114.053 229.943H115.088L114.551 231.438C112.903 236.115 111.791 245.239 112.941 244.779C127.509 238.837 133.872 237.955 142.076 240.753C146.792 242.364 147.022 242.555 148.44 246.197C153.117 258.235 163.123 268.969 173.857 273.492C179.109 275.716 182.214 276.367 188.539 276.597C195.095 276.827 199.005 276.291 204.142 274.412C216.256 270.004 226.645 259.193 232.05 245.392C233.162 242.594 233.469 242.095 235.079 241.098C238.338 239.028 240.178 238.607 245.468 238.607C251.103 238.645 254.937 239.527 261.952 242.402C264.368 243.36 266.706 244.28 267.089 244.395C267.779 244.625 267.818 244.434 267.588 240.447C267.434 237.802 267.013 235.08 266.438 233.048L265.479 229.866L267.549 230.096C270.041 230.364 275.293 232.013 277.747 233.24C278.743 233.738 279.664 234.16 279.779 234.16C280.162 234.16 279.97 230.824 279.357 228.026C277.823 220.704 271.575 209.05 264.674 200.731L261.914 197.357H267.703H273.453L271.766 193.984C270.846 192.144 269.198 189.115 268.124 187.237C267.051 185.358 266.169 183.748 266.169 183.633C266.169 183.556 266.974 182.56 268.009 181.448C273.76 175.084 279.012 161.053 282.807 141.77C284.954 130.883 285.491 125.899 285.529 117.811C285.529 109.683 285.184 107.843 283.382 106.003C282.347 104.968 282.04 104.891 280.43 105.083C276.098 105.581 268.623 108.533 258.119 113.785C242.669 121.491 228.562 130.653 220.78 138.052L217.751 140.889L213.688 140.237C207.056 139.087 200.883 138.704 190.264 138.704C179.607 138.704 173.473 139.087 166.726 140.237L162.548 140.927L160.286 138.665C152.619 130.998 137.744 121.337 120.723 112.98C112.979 109.147 107.229 106.808 102.974 105.696C99.2936 104.776 98.6036 104.776 97.3768 105.735ZM115.701 123.293C125.17 127.931 139.048 136.403 146.677 142.269C148.402 143.572 150.05 144.837 150.319 145.067C150.74 145.374 150.127 145.911 147.328 147.521C140.275 151.661 132.492 158.753 126.052 166.88C124.365 168.989 122.717 171.174 122.333 171.672C121.72 172.631 121.72 172.631 121.107 171.864C119.88 170.254 116.276 162.817 114.206 157.641C109.644 146.179 105.427 124.826 106.922 120.877C107.382 119.766 109.798 120.417 115.701 123.293ZM273.453 121.031C275.217 124.404 270.961 146.026 266.093 158.063C263.984 163.353 259.384 172.477 258.886 172.401C258.771 172.401 257.314 170.561 255.627 168.337C249.11 159.75 240.638 151.891 233.162 147.521L229.674 145.489L230.594 144.761C241.328 136.288 258.31 125.823 267.818 121.797C271.805 120.111 272.878 119.996 273.453 121.031ZM164.579 178.381C165.806 179.033 166.956 180.298 167.876 182.023C168.49 183.173 168.605 184.246 168.605 189.498C168.605 194.75 168.49 195.824 167.876 196.974C166.19 200.156 164.311 201.306 160.746 201.306C157.181 201.306 155.302 200.156 153.615 196.974C153.002 195.824 152.887 194.75 152.887 189.498C152.887 183.901 152.964 183.211 153.73 181.793C154.689 179.991 156.567 178.266 157.794 177.998C158.254 177.921 158.982 177.768 159.404 177.653C160.554 177.423 163.468 177.844 164.579 178.381ZM223.617 178.381C224.843 179.033 225.993 180.298 226.913 182.023C227.527 183.173 227.642 184.246 227.642 189.498C227.642 194.75 227.527 195.824 226.913 196.974C225.227 200.156 223.348 201.306 219.783 201.306C216.218 201.306 214.339 200.156 212.653 196.974C212.039 195.824 211.924 194.75 211.924 189.498C211.924 183.901 212.001 183.211 212.768 181.793C213.726 179.991 215.604 178.266 216.831 177.998C217.291 177.921 218.02 177.768 218.441 177.653C219.591 177.423 222.505 177.844 223.617 178.381ZM201.382 243.169C207.209 243.437 207.516 243.514 207.516 245.085C207.516 248.727 199.043 259.768 193.523 263.257C190.073 265.442 187.696 264.598 182.444 259.308C177.23 254.133 173.013 247.731 173.013 245.009C173.013 243.437 173.55 243.322 182.214 242.977C188.769 242.709 192.526 242.747 201.382 243.169Z" fill="#ECECEC"/>
</svg>
